<svg width="600" height="200" viewBox="0 0 600 200" fill="none" xmlns="http://www.w3.org/2000/svg">
<g clip-path="url(#clip0)">
<path d="M504 90.6C504 98.2 504 105.8 504 113.4C504 117.5 504.6 121.4 506.3 125.2C508.7 130.5 512.9 133.2 518.5 133.7C524.9 134.3 531 133.1 536.4 129.5C536.9 129.2 537.3 129.1 537.6 129.6C537.9 130.1 538.3 130.6 537.6 131.1C528.1 138 518 142.2 506 138.8C497.4 136.4 492.7 130.4 491.8 121.5C491.6 119.5 491.5 117.6 491.5 115.6C491.5 101.2 491.5 86.7 491.5 72.3C491.5 71.1 491.4 69.8 491.1 68.6C490.6 66.4 489.5 65.4 487.3 65C486 64.8 484.6 64.7 483.2 64.7C482.1 64.8 482.1 64.1 482.1 63.3C482.1 62.5 482.2 62.1 483.2 62.1C488.3 62 493 60.7 496.8 57.2C499 55.2 500.4 52.8 501 49.8C501.2 48.8 501.7 48.7 502.5 48.7C503.3 48.8 503.7 49.1 503.7 50.1C503.6 53.6 503.7 57.1 503.7 60.7C503.7 61.5 503.9 61.7 504.7 61.6C513.8 61.3 522.9 60.8 532 60.1C533.3 60 533.7 60.6 533.9 61.6C534.3 63.6 534.2 65.6 533.3 67.5C533 68.3 532.6 68.6 531.7 68.3C522.8 66.3 513.8 65.4 504.7 65.1C503.8 65.1 503.7 65.3 503.7 66.1C504 74.4 504 82.5 504 90.6Z" fill="black"/>
<path d="M448.1 125.1C444.9 128.4 441.6 131.4 437.9 133.7C427.2 140.3 415.8 141.9 404 137.4C394.5 133.9 389.5 126.2 389.5 116.1C389.5 101.5 389.5 86.8 389.5 72.2C389.5 70.4 389.4 68.6 389.1 66.8C388.5 63.7 387 62.2 383.9 61.8C383 61.7 382.1 61.6 381.3 61.6C380.3 61.6 380.5 61 380.5 60.4C380.5 59.8 380.6 59.5 381.4 59.5C386.2 59.5 391.1 60 395.9 60C401.4 60 406.9 59.7 412.4 59.5C413.1 59.5 413.4 59.6 413.4 60.3C413.4 61 413.4 61.5 412.4 61.5C411.1 61.5 409.8 61.6 408.5 61.8C404.2 62.5 402.6 64.3 402.1 68.6C401.9 70.2 401.8 71.9 401.8 73.5C401.8 85.9 401.8 98.2 401.8 110.6C401.8 115.3 402.3 119.9 404.2 124.2C406.8 130.1 411.4 133.4 417.7 134.4C427.8 135.9 436.3 132.4 443.6 125.6C445.2 124.1 447.2 122.8 448 120.9C448.7 119.3 448.2 117.1 448.2 115.2C448.2 101.2 448.2 87.2 448.2 73.2C448.2 71.6 448.1 70.1 448 68.5C447.5 64.1 445.5 62.1 441.1 61.7C440 61.6 438.9 61.5 437.8 61.5C436.8 61.5 437 60.9 436.9 60.3C436.9 59.7 437.1 59.4 437.8 59.4C443.2 59.5 448.5 59.9 453.8 59.9C458.8 59.9 463.7 59.6 468.7 59.5C469.6 59.5 470.5 59.5 471.3 59.4C472.1 59.3 472.2 59.7 472.1 60.3C472.1 60.9 472.2 61.4 471.3 61.4C469.6 61.4 468 61.5 466.3 61.8C463.1 62.4 461.5 63.9 460.8 67.1C460.3 69.1 460.3 71.1 460.3 73.2C460.3 90 460.3 106.9 460.3 123.7C460.3 126 460.4 128.2 460.9 130.5C461.5 133.1 463.1 134.6 465.7 135C467.4 135.3 469.1 135.5 470.8 135.4C471.6 135.4 471.8 135.7 471.8 136.4C471.8 137.2 471.5 137.5 470.7 137.4C466.5 137.3 462.3 137.3 458.1 137.3C455.8 137.3 453.5 137.4 451.1 137.4C448.5 137.4 448.1 137 448.1 134.4C448.1 131.6 448.1 128.9 448.1 126.1C448.1 126.2 448.1 125.8 448.1 125.1Z" fill="black"/>
<path d="M231.6 98.5C231.6 107 231.6 115.5 231.6 124.1C231.6 125.8 231.8 127.4 232.1 129.1C232.7 132.2 234.5 134.1 237.5 134.9C240.6 135.7 243.7 135.8 246.9 135.8C247.7 135.8 248 136 248 136.8C248 137.5 247.7 137.9 246.9 137.9C242.9 137.8 238.8 137.7 234.8 137.7C229.1 137.6 223.4 137.5 217.7 137.7C214.5 137.8 211.2 137.8 208 137.9C207.2 137.9 207 137.6 207 136.9C207 136.3 207 135.8 207.9 135.8C209.5 135.9 211.2 135.7 212.8 135.5C217 134.8 218.5 133.2 219 129C219.2 127.6 219.3 126.2 219.3 124.8C219.3 107.4 219.3 90.1 219.3 72.7C219.3 70.9 219.2 69.2 218.8 67.5C218.3 64.7 216.7 63 214 62.3C212 61.8 210.1 61.6 208.1 61.7C207.2 61.7 206.9 61.4 206.9 60.5C206.9 59.7 207.3 59.6 208 59.6C213.5 59.6 218.9 60 224.4 60.1C228.9 60.2 233.4 59.6 237.9 59.3C245.2 58.8 252.4 58.7 259.5 60.9C265.5 62.7 270.4 66.1 272.1 72.4C274.3 80.5 273.1 88.1 267.3 94.6C262.8 99.7 256.9 102.2 250.3 103.3C246.8 103.9 243.4 103.8 239.9 103.4C239 103.3 238.6 102.9 238.6 101.9C238.6 100.8 239.4 100.9 240.1 101C242.3 101.2 244.6 101.5 246.8 101.1C252.9 99.9 256.7 96.1 258.3 90.2C260 84.3 259.8 78.3 257.8 72.5C255.6 66.1 250.8 62.7 244.2 61.8C241.7 61.5 239.2 61.5 236.7 62C234.5 62.4 233.2 63.7 232.4 65.8C231.6 68.1 231.4 70.5 231.4 72.9C231.6 81.4 231.6 90 231.6 98.5Z" fill="black"/>
<path fill-rule="evenodd" clip-rule="evenodd" d="M369 89.5C365.4 71.9 350.5 57.4 330.3 57.6C324.6 57.6 318.8 58.7 313.3 60.7C303 64.5 294.9 70.8 289.7 80.5C285.2 88.8 284.3 97.8 286 106.9C288.7 121.1 296.5 131.6 310.1 136.9C323.6 142.2 336.9 140.6 349.3 133C363.6 124.3 372.7 107.6 369 89.5ZM351.8 121.6C354.8 115.3 355.6 108.6 355.6 101.7V98.6C355.2 90.8 353.6 83.3 349.7 76.5C344.4 67.2 336.6 61.5 325.6 61.2C318.6 61 312.3 62.8 307.3 68.1C303.7 71.9 301.7 76.4 300.5 81.4C298.7 89 298.7 96.7 299.9 104.4C301.1 112.2 303.7 119.4 308.7 125.6C315.4 134 324 137.6 334.7 135.7C342.9 134.2 348.3 128.9 351.8 121.6Z" fill="black"/>
<path d="M191.5 72C191.706 74.2009 191.858 76.7811 192 78.9C192 79.6 191.9 80.2 191.1 80.3C190.3 80.4 190 80 189.8 79.3C187.2 71.5 182.5 65.5 174.9 62.1C171.6 60.7 168.2 60.4 164.7 61C159.4 62 156.1 66.2 155.8 72C155.5 77.8 158.2 82.2 162.4 85.8C166 88.8 170.2 90.9 174.3 93.1C178.3 95.3 182.5 97.3 186.2 99.9C190.9 103.2 194.8 107.2 195.7 113.1C197.2 122.4 193.7 129.6 186 134.8C181 138.2 175.2 139.6 169.2 139.8C162.2 140.1 155.4 139 149 136H148.9C143.8 133.3 144.4 133.6 144 128.8C143.6 123.9 143.1 118.9 142.7 114C142.6 113.3 142.5 112.6 143.5 112.4C144.5 112.1 144.7 112.8 145 113.5C147.1 119.5 150.4 124.8 154.8 129.4C159.3 134.1 164.6 137 171.2 136.7C176.9 136.5 183.7 133.3 183.9 124.2C184.1 118.2 181.7 113.4 177.5 109.5C174.2 106.5 170.3 104.4 166.5 102.1C162.3 99.7 157.9 97.5 153.9 94.7C150.1 92.1 146.9 88.9 145.3 84.5C142.8 77.6 144.1 68.5 151.8 63.1C158.4 58.5 165.7 57.1 173.5 57.6C178.7 57.9 183.6 59.2 188.4 61.2C190.3 62 191.1 63.2 191.2 65.2C191.2 67.5 191.4 69.7 191.5 72Z" fill="black"/>
<g clip-path="url(#clip1)">
<g clip-path="url(#clip2)">
<path d="M109.864 81.6482C109.919 82.1551 109.602 82.3273 109.285 82.4994C102.206 85.273 93.5413 83.3847 89.2748 78.38C86.7294 75.4387 85.4805 71.6283 86.1988 67.8916C87.3645 60.6661 94.4797 58.0316 100.455 61.0743C106.595 64.2012 106.739 71.8405 102.972 76.8076C102.402 77.5593 102.366 77.9577 103.009 78.6183C104.848 80.4915 107.166 81.5045 109.864 81.6482Z" fill="#0B0A0B"/>
<path d="M135.645 110.324C136.272 109.983 136.218 109.482 136.164 108.98C133.723 98.6265 124.654 89.157 115.499 88.2296C109.656 87.3386 105.035 88.451 101.009 93.4818C96.982 98.5126 96.4833 109.464 104.009 114.118C112.091 119.22 121.871 115.436 124.59 106.244C125.001 104.99 125.431 104.632 126.703 104.846C130.322 105.471 133.332 107.333 135.645 110.324Z" fill="#0B0A0B"/>
<circle cx="77.697" cy="95.0095" r="13.1644" transform="rotate(5.16885 77.697 95.0095)" fill="black"/>
<circle cx="68.6329" cy="66.9064" r="8.42674" transform="rotate(5.16885 68.6329 66.9064)" fill="black"/>
</g>
</g>
</g>
<defs>
<clipPath id="clip0">
<rect width="600" height="200" fill="white"/>
</clipPath>
<clipPath id="clip1">
<rect width="100" height="100" fill="white" transform="translate(51 48.4517)"/>
</clipPath>
<clipPath id="clip2">
<rect width="80" height="80" fill="white" transform="translate(58.1035 48.4517)"/>
</clipPath>
</defs>
</svg>
