<svg width="80" height="81" viewBox="0 0 80 81" fill="none" xmlns="http://www.w3.org/2000/svg">
<g clip-path="url(#clip0)">
<path d="M51.7607 33.9819C51.8152 34.4889 51.4984 34.661 51.1816 34.8332C44.103 37.6067 35.4379 35.7184 31.1714 30.7137C28.626 27.7724 27.3771 23.962 28.0954 20.2254C29.3904 13.5039 35.5368 10.9918 41.3512 13.4081C47.7144 16.0524 48.6354 24.1743 44.8687 29.1413C44.2987 29.893 44.2627 30.2914 44.9058 30.952C46.7445 32.8253 49.0626 33.8382 51.7607 33.9819Z" fill="black"/>
<path d="M77.5414 62.6576C78.1682 62.3169 78.1142 61.8153 78.0603 61.3138C75.6193 50.9603 66.5508 42.4908 57.3961 41.5633C51.9856 40.9745 47.3943 41.1065 42.9051 45.8155C38.4159 50.5245 38.3799 61.7973 45.906 66.4517C53.9878 71.5537 63.7674 67.7694 66.4863 58.578C66.8978 57.3238 67.3276 56.9653 68.5996 57.1798C72.2186 57.8051 75.2291 59.6669 77.5414 62.6576Z" fill="black"/>
<circle cx="19.5935" cy="47.3432" r="13.1644" fill="black"/>
<circle cx="10.5295" cy="19.2402" r="8.42674" fill="black"/>
</g>
<defs>
<clipPath id="clip0">
<rect width="80" height="80" fill="white" transform="translate(0 0.7854)"/>
</clipPath>
</defs>
</svg>
